<mxfile host="app.diagrams.net" modified="2020-03-27T02:55:59.015Z" agent="Mozilla/5.0 (Windows NT 10.0; Win64; x64) AppleWebKit/537.36 (KHTML, like Gecko) Chrome/80.0.3987.149 Safari/537.36" etag="qkBhOr8VfBfBDt8-jBiD" version="12.9.3" type="github">
  <diagram id="OEwcCPnYgqWynmyWk8Lr" name="Page-1">
    <mxGraphModel dx="960" dy="460" grid="1" gridSize="10" guides="1" tooltips="1" connect="1" arrows="1" fold="1" page="1" pageScale="1" pageWidth="850" pageHeight="1100" math="0" shadow="0">
      <root>
        <mxCell id="0" />
        <mxCell id="1" parent="0" />
        <mxCell id="aMSy8K4YHDw5tqLLMzdE-23" style="edgeStyle=orthogonalEdgeStyle;rounded=0;orthogonalLoop=1;jettySize=auto;html=1;exitX=1;exitY=0.5;exitDx=0;exitDy=0;entryX=0;entryY=0.5;entryDx=0;entryDy=0;fillColor=#f8cecc;strokeColor=#b85450;" parent="1" source="aMSy8K4YHDw5tqLLMzdE-1" target="aMSy8K4YHDw5tqLLMzdE-22" edge="1">
          <mxGeometry relative="1" as="geometry" />
        </mxCell>
        <mxCell id="aMSy8K4YHDw5tqLLMzdE-1" value="Analog to Digital Converter" style="rounded=0;whiteSpace=wrap;html=1;" parent="1" vertex="1">
          <mxGeometry x="340" y="205" width="110" height="50" as="geometry" />
        </mxCell>
        <mxCell id="aMSy8K4YHDw5tqLLMzdE-16" style="edgeStyle=orthogonalEdgeStyle;rounded=0;orthogonalLoop=1;jettySize=auto;html=1;exitX=1;exitY=0.5;exitDx=0;exitDy=0;entryX=0;entryY=0.5;entryDx=0;entryDy=0;fillColor=#ffe6cc;strokeColor=#d79b00;" parent="1" source="aMSy8K4YHDw5tqLLMzdE-2" target="aMSy8K4YHDw5tqLLMzdE-1" edge="1">
          <mxGeometry relative="1" as="geometry" />
        </mxCell>
        <mxCell id="aMSy8K4YHDw5tqLLMzdE-2" value="Moisture Sensor" style="rounded=0;whiteSpace=wrap;html=1;" parent="1" vertex="1">
          <mxGeometry x="160" y="200" width="120" height="60" as="geometry" />
        </mxCell>
        <mxCell id="aMSy8K4YHDw5tqLLMzdE-17" style="edgeStyle=orthogonalEdgeStyle;rounded=0;orthogonalLoop=1;jettySize=auto;html=1;exitX=0.5;exitY=1;exitDx=0;exitDy=0;entryX=0;entryY=0.25;entryDx=0;entryDy=0;fillColor=#ffe6cc;strokeColor=#d79b00;" parent="1" source="aMSy8K4YHDw5tqLLMzdE-3" target="aMSy8K4YHDw5tqLLMzdE-1" edge="1">
          <mxGeometry relative="1" as="geometry" />
        </mxCell>
        <mxCell id="aMSy8K4YHDw5tqLLMzdE-3" value="UV Light Sensor" style="rounded=0;whiteSpace=wrap;html=1;" parent="1" vertex="1">
          <mxGeometry x="240" y="90" width="120" height="60" as="geometry" />
        </mxCell>
        <mxCell id="aMSy8K4YHDw5tqLLMzdE-20" style="edgeStyle=orthogonalEdgeStyle;rounded=0;orthogonalLoop=1;jettySize=auto;html=1;exitX=0;exitY=0.5;exitDx=0;exitDy=0;fillColor=#dae8fc;strokeColor=#6c8ebf;" parent="1" source="aMSy8K4YHDw5tqLLMzdE-4" target="aMSy8K4YHDw5tqLLMzdE-9" edge="1">
          <mxGeometry relative="1" as="geometry" />
        </mxCell>
        <mxCell id="aMSy8K4YHDw5tqLLMzdE-4" value="Pump" style="rounded=0;whiteSpace=wrap;html=1;fillColor=#dae8fc;strokeColor=#6c8ebf;" parent="1" vertex="1">
          <mxGeometry x="250" y="330" width="120" height="60" as="geometry" />
        </mxCell>
        <mxCell id="aMSy8K4YHDw5tqLLMzdE-19" style="edgeStyle=orthogonalEdgeStyle;rounded=0;orthogonalLoop=1;jettySize=auto;html=1;exitX=0;exitY=0.5;exitDx=0;exitDy=0;" parent="1" source="aMSy8K4YHDw5tqLLMzdE-5" target="aMSy8K4YHDw5tqLLMzdE-4" edge="1">
          <mxGeometry relative="1" as="geometry" />
        </mxCell>
        <mxCell id="aMSy8K4YHDw5tqLLMzdE-5" value="Relay" style="rounded=0;whiteSpace=wrap;html=1;" parent="1" vertex="1">
          <mxGeometry x="532.5" y="345" width="55" height="30" as="geometry" />
        </mxCell>
        <mxCell id="aMSy8K4YHDw5tqLLMzdE-7" value="Firebase" style="rounded=0;whiteSpace=wrap;html=1;fillColor=#ffe6cc;strokeColor=#d79b00;" parent="1" vertex="1">
          <mxGeometry x="700" y="200" width="120" height="60" as="geometry" />
        </mxCell>
        <mxCell id="aMSy8K4YHDw5tqLLMzdE-10" style="edgeStyle=orthogonalEdgeStyle;rounded=0;orthogonalLoop=1;jettySize=auto;html=1;exitX=0.5;exitY=0;exitDx=0;exitDy=0;entryX=0;entryY=0.5;entryDx=0;entryDy=0;fillColor=#d5e8d4;strokeColor=#82b366;" parent="1" source="aMSy8K4YHDw5tqLLMzdE-9" target="aMSy8K4YHDw5tqLLMzdE-2" edge="1">
          <mxGeometry relative="1" as="geometry" />
        </mxCell>
        <mxCell id="7kbAEhHMBlRULFkFb5fA-3" style="edgeStyle=orthogonalEdgeStyle;rounded=0;orthogonalLoop=1;jettySize=auto;html=1;exitX=0.5;exitY=1;exitDx=0;exitDy=0;entryX=0;entryY=0.5;entryDx=0;entryDy=0;fillColor=#d5e8d4;strokeColor=#82b366;" edge="1" parent="1" source="aMSy8K4YHDw5tqLLMzdE-9" target="7kbAEhHMBlRULFkFb5fA-1">
          <mxGeometry relative="1" as="geometry" />
        </mxCell>
        <mxCell id="aMSy8K4YHDw5tqLLMzdE-9" value="" style="shape=image;html=1;verticalAlign=top;verticalLabelPosition=bottom;labelBackgroundColor=#ffffff;imageAspect=0;aspect=fixed;image=https://cdn1.iconfinder.com/data/icons/icons-for-a-site-1/64/advantage_eco_friendly-128.png" parent="1" vertex="1">
          <mxGeometry x="10" y="250" width="110" height="110" as="geometry" />
        </mxCell>
        <mxCell id="aMSy8K4YHDw5tqLLMzdE-14" style="edgeStyle=orthogonalEdgeStyle;rounded=0;orthogonalLoop=1;jettySize=auto;html=1;exitX=0.5;exitY=1;exitDx=0;exitDy=0;entryX=1;entryY=0.5;entryDx=0;entryDy=0;" parent="1" source="aMSy8K4YHDw5tqLLMzdE-11" target="aMSy8K4YHDw5tqLLMzdE-3" edge="1">
          <mxGeometry relative="1" as="geometry" />
        </mxCell>
        <mxCell id="aMSy8K4YHDw5tqLLMzdE-11" value="" style="shape=image;html=1;verticalAlign=top;verticalLabelPosition=bottom;labelBackgroundColor=#ffffff;imageAspect=0;aspect=fixed;image=https://cdn2.iconfinder.com/data/icons/freecns-cumulus/32/519842-54_Sun-128.png" parent="1" vertex="1">
          <mxGeometry x="410" y="2" width="58" height="58" as="geometry" />
        </mxCell>
        <mxCell id="aMSy8K4YHDw5tqLLMzdE-15" style="edgeStyle=orthogonalEdgeStyle;rounded=0;orthogonalLoop=1;jettySize=auto;html=1;exitX=0.5;exitY=1;exitDx=0;exitDy=0;entryX=1;entryY=0.5;entryDx=0;entryDy=0;" parent="1" source="aMSy8K4YHDw5tqLLMzdE-13" target="aMSy8K4YHDw5tqLLMzdE-3" edge="1">
          <mxGeometry relative="1" as="geometry" />
        </mxCell>
        <mxCell id="aMSy8K4YHDw5tqLLMzdE-13" value="" style="shape=image;html=1;verticalAlign=top;verticalLabelPosition=bottom;labelBackgroundColor=#ffffff;imageAspect=0;aspect=fixed;image=https://cdn0.iconfinder.com/data/icons/colourful-education/250/bulb-128.png" parent="1" vertex="1">
          <mxGeometry x="350" width="60" height="60" as="geometry" />
        </mxCell>
        <mxCell id="aMSy8K4YHDw5tqLLMzdE-24" style="edgeStyle=orthogonalEdgeStyle;rounded=0;orthogonalLoop=1;jettySize=auto;html=1;exitX=1;exitY=0.5;exitDx=0;exitDy=0;entryX=0;entryY=0.5;entryDx=0;entryDy=0;" parent="1" source="aMSy8K4YHDw5tqLLMzdE-22" target="aMSy8K4YHDw5tqLLMzdE-7" edge="1">
          <mxGeometry relative="1" as="geometry" />
        </mxCell>
        <mxCell id="aMSy8K4YHDw5tqLLMzdE-25" style="edgeStyle=orthogonalEdgeStyle;rounded=0;orthogonalLoop=1;jettySize=auto;html=1;exitX=0.5;exitY=1;exitDx=0;exitDy=0;entryX=0.5;entryY=0;entryDx=0;entryDy=0;" parent="1" source="aMSy8K4YHDw5tqLLMzdE-22" target="aMSy8K4YHDw5tqLLMzdE-5" edge="1">
          <mxGeometry relative="1" as="geometry" />
        </mxCell>
        <mxCell id="aMSy8K4YHDw5tqLLMzdE-22" value="Single Board Computer" style="rounded=0;whiteSpace=wrap;html=1;fillColor=#dae8fc;strokeColor=#6c8ebf;" parent="1" vertex="1">
          <mxGeometry x="480" y="160" width="160" height="140" as="geometry" />
        </mxCell>
        <mxCell id="7kbAEhHMBlRULFkFb5fA-4" style="edgeStyle=orthogonalEdgeStyle;rounded=0;orthogonalLoop=1;jettySize=auto;html=1;exitX=1;exitY=0.5;exitDx=0;exitDy=0;entryX=0;entryY=0.75;entryDx=0;entryDy=0;fillColor=#f8cecc;strokeColor=#b85450;" edge="1" parent="1" source="7kbAEhHMBlRULFkFb5fA-1" target="aMSy8K4YHDw5tqLLMzdE-22">
          <mxGeometry relative="1" as="geometry">
            <Array as="points">
              <mxPoint x="400" y="430" />
              <mxPoint x="400" y="265" />
            </Array>
          </mxGeometry>
        </mxCell>
        <mxCell id="7kbAEhHMBlRULFkFb5fA-1" value="Atmospheric Breakout Sensor" style="rounded=0;whiteSpace=wrap;html=1;" vertex="1" parent="1">
          <mxGeometry x="160" y="400" width="120" height="60" as="geometry" />
        </mxCell>
      </root>
    </mxGraphModel>
  </diagram>
</mxfile>
